<svg xmlns="http://www.w3.org/2000/svg" width="32" height="32" fill="none"><path stroke="#151515" stroke-width="1.5" d="M14.765 2.508c.424-1.147 2.046-1.147 2.47 0a2.816 2.816 0 0 0 4.442 1.19c.94-.781 2.345.03 2.139 1.235a2.816 2.816 0 0 0 3.251 3.252c1.205-.207 2.017 1.198 1.235 2.138a2.816 2.816 0 0 0 1.19 4.442c1.147.424 1.147 2.046 0 2.47a2.816 2.816 0 0 0-1.19 4.442c.782.94-.03 2.345-1.235 2.139a2.816 2.816 0 0 0-3.252 3.251c.207 1.205-1.198 2.017-2.138 1.235a2.816 2.816 0 0 0-4.442 1.19c-.424 1.147-2.046 1.147-2.47 0a2.816 2.816 0 0 0-4.442-1.19c-.94.782-2.345-.03-2.138-1.235a2.816 2.816 0 0 0-3.252-3.252c-1.205.207-2.016-1.198-1.235-2.138a2.816 2.816 0 0 0-1.19-4.442c-1.147-.424-1.147-2.046 0-2.47a2.816 2.816 0 0 0 1.19-4.442c-.781-.94.03-2.345 1.235-2.138a2.816 2.816 0 0 0 3.252-3.252c-.207-1.205 1.198-2.016 2.138-1.235a2.816 2.816 0 0 0 4.442-1.19Z"/></svg>